<?xml version="1.0" standalone="no"?><!DOCTYPE svg PUBLIC "-//W3C//DTD SVG 1.1//EN" "http://www.w3.org/Graphics/SVG/1.1/DTD/svg11.dtd"><svg t="1594004518958" class="icon" viewBox="0 0 1025 1024" version="1.1" xmlns="http://www.w3.org/2000/svg" p-id="2591" xmlns:xlink="http://www.w3.org/1999/xlink" width="200.1953125" height="200"><defs><style type="text/css"></style></defs><path d="M632.661058 761.767431 391.375821 761.767431c-58.497637 0-104.316238-36.274288-104.316238-82.579693L287.059583 531.604933c0-33.810764 24.701625-63.247666 62.569091-75.963582-5.450732-49.093465 4.152587-92.478045 28.013369-126.038032 25.262187-35.536706 64.973608-58.851677 111.824824-65.644808 7.810995-1.135876 15.740002-1.711191 23.573124-1.711191 34.275441 0 67.075717 10.73182 94.838308 31.03008 34.275441 25.06304 56.579924 61.779878 62.797741 103.379509 1.128501 7.560217-0.767085 15.113058-5.340095 21.271868-4.632016 6.239945-11.447274 10.296646-19.184511 11.417771-16.248934 2.286505-30.639161-8.924744-32.910914-24.281203-3.95344-26.31693-18.107641-49.58027-39.844186-65.475164-21.721793-15.90227-48.680419-22.562637-75.528408-18.697707-30.926818 4.491875-56.764319 19.354155-72.7551 41.843033-15.533479 21.854558-21.625908 51.512735-17.819984 86.267604l225.360839 0c58.482886 0 104.308863 36.274288 104.323614 82.579693l0 147.590181C736.96992 725.493143 691.158695 761.767431 632.661058 761.767431zM513.039991 288.062694c-6.593984 0-13.283854 0.486804-19.870462 1.445661-39.799931 5.775268-73.359917 25.321194-94.491645 55.053129-21.699666 30.528524-29.326265 71.493834-22.031578 118.463063l1.836579 11.838193-11.675925 2.714302c-32.261842 7.50121-53.93938 29.208252-53.93938 54.02789l0 147.582805c0 31.826668 34.481964 56.764319 78.500864 56.764319l241.285237 0c44.018901 0 78.500864-24.937651 78.500864-56.771695L711.154547 531.597557c-0.014752-31.834044-34.496715-56.771695-78.50824-56.771695L385.069494 474.825861l-1.770197-10.827705c-7.552841-46.275902-0.368791-86.459375 20.777688-116.206062 20.12124-28.301026 52.110176-46.924974 90.095655-52.434712 33.589489-4.85329 67.304368 3.533018 94.476893 23.410856 27.342169 19.988475 45.147401 49.292613 50.140832 82.505935 0.213899 1.48254 1.585802 2.574162 3.186355 2.574162 1.681687-0.206523 2.352887-0.89985 2.64792-1.298145 0.31716-0.435173 0.6712-1.135876 0.531059-2.06523-5.192578-34.725366-23.838654-65.39403-52.508471-86.356114C569.332258 297.075948 541.805693 288.062694 513.039991 288.062694z" p-id="2592" fill="#C5E3DF"></path><path d="M512.007376 680.426876c-15.614613 0-28.315777-12.583151-28.315777-28.057624l0-31.539011c-12.693788-8.968999-20.534286-23.587876-20.534286-39.187738 0-26.611963 21.913565-48.274749 48.850063-48.274749s48.857439 21.662787 48.857439 48.274749c0 15.592486-7.840498 30.218739-20.52691 39.187738l0 31.539011C540.330529 667.843725 527.629365 680.426876 512.007376 680.426876zM512.007376 559.183128c-12.701164 0-23.034689 10.075372-23.034689 22.459375 0 8.629711 5.022934 16.34482 13.11421 20.143368l7.420076 3.488763 0 47.101994c0 1.21701 1.143252 2.24225 2.500403 2.24225 1.364527 0 2.507779-1.025239 2.507779-2.24225l0-47.094618 7.4127-3.488763c8.091276-3.8133 13.11421-11.528408 13.11421-20.150743C535.049441 569.258499 524.70854 559.183128 512.007376 559.183128z" p-id="2593" fill="#C5E3DF"></path><path d="M512.022127 0C229.233145 0 0 229.233145 0 512.014752c0 282.759479 229.233145 511.985248 512.022127 511.985248 282.774231 0 512.007376-229.225769 512.007376-511.985248C1024.022127 229.233145 794.796358 0 512.022127 0zM512.022127 999.032845c-268.988821 0-487.040221-218.0514-487.040221-487.018094 0-268.981445 218.0514-487.032845 487.040221-487.032845 268.988821 0 487.040221 218.0514 487.040221 487.032845C999.062349 780.988821 781.010948 999.032845 512.022127 999.032845z" p-id="2594" fill="#C5E3DF"></path></svg>