<?xml version="1.0" standalone="no"?><!DOCTYPE svg PUBLIC "-//W3C//DTD SVG 1.1//EN" "http://www.w3.org/Graphics/SVG/1.1/DTD/svg11.dtd"><svg t="1593942388580" class="icon" viewBox="0 0 1024 1024" version="1.1" xmlns="http://www.w3.org/2000/svg" p-id="1681" xmlns:xlink="http://www.w3.org/1999/xlink" width="200" height="200"><defs><style type="text/css"></style></defs><path d="M1024 512c0 282.795-229.205 512-512 512S0 794.795 0 512 229.205 0 512 0s512 229.205 512 512z m-556.117-75.69l143.36-104.875c36.565-25.472 82.346-17.152 107.946 19.754 25.771 37.206 17.579 84.011-19.2 109.995L557.91 561.707l35.414 51.114 142.293-100.693c60.928-43.093 76.288-131.03 34.603-196.139-41.131-64.341-129.024-78.677-191.574-34.474L432.3 385.067l35.584 51.242z m55.04 14.933l35.626 51.413 80.982-57.301-35.627-51.414-80.981 57.302z m17.621 135.594l-91.307 131.67c-16.384 23.68-59.989 24.405-93.056-1.707-35.84-28.288-50.048-66.645-34.56-88.917l90.496-130.646-50.816-35.968-90.026 134.827c-33.878 48.939-9.216 123.904 51.712 166.955 61.013 43.136 139.349 40.96 173.44-8.278l90.026-129.834-45.909-38.102z m-41.557-25.002l-50.944-36.054-56.662 81.75 50.944 36.053 56.662-81.75z" p-id="1682" fill="#C5E3DF"></path></svg>