<?xml version="1.0" standalone="no"?><!DOCTYPE svg PUBLIC "-//W3C//DTD SVG 1.1//EN" "http://www.w3.org/Graphics/SVG/1.1/DTD/svg11.dtd"><svg t="1599892863611" class="icon" viewBox="0 0 1024 1024" version="1.1" xmlns="http://www.w3.org/2000/svg" p-id="2725" width="32" height="32" data-spm-anchor-id="a313x.7781069.0.i5" xmlns:xlink="http://www.w3.org/1999/xlink"><defs><style type="text/css"></style></defs><path d="M929 826.5l-65-130.1V416c0-43.5-10.5-86.1-31.1-126.6-19.2-37.6-46.2-71.6-80.3-101.2-42.4-36.8-92.8-63.7-145.6-78.7 0.6-4.4 0.9-9 0.9-13.5 0-52.9-43.1-96-96-96s-96 43.1-96 96c0 4.6 0.3 9.1 1 13.5-52.7 14.9-103.1 41.9-145.6 78.7-34.1 29.6-61.1 63.6-80.3 101.2-20.5 40.5-31 83.1-31 126.6v280.4L95 826.5c-7.5 15-6.7 32.4 2.1 46.7 8.8 14.3 24.1 22.8 40.8 22.8h217.3c14.9 72.9 79.5 128 156.8 128 77.3 0 141.9-55.1 156.8-128h217.3c16.8 0 32-8.5 40.8-22.8s9.6-31.7 2.1-46.7zM480 96c0-17.6 14.4-32 32-32s32 14.4 32 32v1.5c-10.7-1-21.3-1.5-32-1.5-10.6 0-21.3 0.5-31.9 1.5-0.1-0.5-0.1-1-0.1-1.5z m32 864c-41.7 0-77.3-26.8-90.5-64h181c-13.2 37.2-48.8 64-90.5 64zM163.8 832L219 721.7c3.3-6.6 5.1-14.1 5.1-21.5V416c0-33.3 8.1-66.2 24.1-97.6 15.4-30.2 37.3-57.8 65.2-81.9 56-48.6 128.4-76.5 198.6-76.5s142.6 27.9 198.7 76.5c27.8 24.1 49.8 51.7 65.2 81.9 16 31.4 24.1 64.2 24.1 97.6v284.2c0 7.4 1.8 14.8 5.1 21.5L860.2 832H163.8z" fill="#ffffff" p-id="2726"></path></svg>